# xmcd CD database file
#
# Track frame offsets:
#	150
#	22207
#	51600
#	70225
#	92047
#	113557
#	135680
#	156825
#	174627
#	194472
#	214425
#	234087
#	252022
#	274330
#
# Disc length: 3890 seconds
#
# Revision: 0
# Processed by: cddbd v1.5.2PL0 Copyright (c) Steve Scherf et al.
# Submitted via: CDex 1.70beta2
#
DISCID=d10f300e
DTITLE=Various Artist - Los Grandes Del Merengue
DYEAR=1996
DGENRE=Merengue
TTITLE0=Juan Luis Guerra - El Beso De La Ciguatera
TTITLE1=Rubby Perez - Ay/Nunca Te Menti/Merengue Rico
TTITLE2=Miriam Cruz - Con Agua De Sal
TTITLE3=Los Hermanos Rosario - La Dueña Del Swing
TTITLE4=Mickey Taveras - La Ventanita
TTITLE5=Ramon Orlando - El Venao
TTITLE6=Los Hermanos Rosario - Morena Ven
TTITLE7=Maridalia Hernandes - Salón De Baile
TTITLE8=Francisco Ulloa - El Santo Cachón
TTITLE9=Ramon Orlando - Te Compro Tu Novia
TTITLE10=Miriam Cruz - La Loba
TTITLE11=Son Familia - Me Mantengo
TTITLE12=Roy Tavare - Esa Negra
TTITLE13=Los Hermanos Rosario - Caramelo
EXTD=YEAR: 1996
EXTT0=
EXTT1=
EXTT2=
EXTT3=
EXTT4=
EXTT5=
EXTT6=
EXTT7=
EXTT8=
EXTT9=
EXTT10=
EXTT11=
EXTT12=
EXTT13=
PLAYORDER=
